# xmcd
#
# Track frame offsets:
#	179
#	12049
#	22774
#	36766
#	48111
#	59432
#	74232
#	86875
#	99348
#	107615
#	115979
#
# Disc length: 1714 seconds
# Revision: 1
# Processed by: cddbd v1.5.2PL0 Copyright (c) Steve Scherf et al.
# Submitted via: dBpowerAMP V12.0
#
DISCID=8806b00b
DTITLE=Johnny Cash - Complete Columbia Album Collection, Disc 18 [Carryin' On]
DYEAR=1967
DGENRE=Country
TTITLE0=Long-Legged Guitar Pickin' Man
TTITLE1=Shantytown
TTITLE2=It Ain't Me, Babe
TTITLE3=Fast Boat to Sydney
TTITLE4=Pack Up Your Sorrows
TTITLE5=I Got a Woman
TTITLE6=Jackson
TTITLE7=Oh, What a Good Thing We Had
TTITLE8=You'll Be All Right
TTITLE9=No, No, No
TTITLE10=What'd I Say
EXTD=
EXTT0=
EXTT1=
EXTT2=
EXTT3=
EXTT4=
EXTT5=
EXTT6=
EXTT7=
EXTT8=
EXTT9=
EXTT10=
PLAYORDER=
